<?xml version="1.0" ?><!DOCTYPE svg  PUBLIC '-//W3C//DTD SVG 1.1//EN'  'http://www.w3.org/Graphics/SVG/1.1/DTD/svg11.dtd'><svg height="512px" style="enable-background:new 0 0 512 512;" version="1.1" viewBox="0 0 512 512" width="512px" xml:space="preserve" xmlns="http://www.w3.org/2000/svg" xmlns:xlink="http://www.w3.org/1999/xlink"><g id="Americanexpress_x2C__american_x2C__express_x2C__debit_x2C_"><g><path d="M495.998,389.996c0,8.836-7.215,15.959-16.051,15.959H32.053    c-8.839,0-16.051-7.123-16.051-15.959V122.004c0-8.747,7.212-15.959,16.051-15.959h447.895c8.836,0,16.051,7.212,16.051,15.959    V389.996z" style="fill-rule:evenodd;clip-rule:evenodd;fill:#0A78A9;"/><path d="M164.877,249.055v-4.775l-2.252,4.775h-19.93l-2.434-5.139    v5.139h-37.152l-4.418-10.371h-7.396l-4.687,10.371h-19.21v-31.382l14.068-31.917h27.053l3.786,9.014v-8.928h33.005l7.305,15.244    l7.123-15.33h104.328c0,0,5.502-0.093,9.107,2.434v-2.434h26.242v3.426c0,0,4.781-3.426,11.727-3.426c7.029,0,46.439,0,46.439,0    l4.055,9.193v-9.193h29.668l5.41,9.193v-9.193h28.406v63.299h-29.127l-6.852-11v11h-36.342l-5.139-11.363h-7.037l-4.775,11.363    h-22.002c0,0-8.209-0.094-14.338-4.505c0,2.249,0,4.505,0,4.505h-43.736c0,0,0-12.626,0-14.789c0-2.162-1.623-1.984-1.623-1.984    h-1.625v16.773H164.877z" style="fill-rule:evenodd;clip-rule:evenodd;fill:#FFFFFF;"/><path d="M143.055,262.764h57.44l8.297,9.379l8.479-9.379h44.181    c0,0,4.15,0.086,8.117,2.163v-2.163c0,0,34.359,0,39.318,0c5.047,0,9.199,2.521,9.199,2.521v-2.521h50.588v2.341    c0,0,3.604-2.341,8.385-2.341c4.869,0,33.002,0,33.002,0v2.341c0,0,4.148-2.341,8.48-2.341c4.418,0,25.879,0,25.879,0v59.695    c0,0-3.426,3.875-10.463,3.875h-34.086v-1.893c0,0-3.248,1.893-8.209,1.893c-4.867,0-90.533,0-90.533,0s0-13.889,0-15.423    c0-1.528-0.629-1.8-1.984-1.8h-1.262v17.223h-28.314v-17.136c0,0-3.156,1.713-8.385,1.713c-5.232,0-10.191,0-10.191,0v15.423    h-34.896l-7.934-9.736l-8.479,9.736h-56.629V262.764z" style="fill-rule:evenodd;clip-rule:evenodd;fill:#FFFFFF;"/><polygon points="324.125,272.32 360.195,272.32 360.195,281.969     335.215,281.969 335.215,290.355 359.475,290.355 359.475,298.92 335.215,298.92 335.215,307.756 360.195,307.756     360.195,317.227 324.125,317.227   " style="fill-rule:evenodd;clip-rule:evenodd;fill:#0A78A9;"/><path d="M429.902,289.813c13.525,0.628,14.604,7.487,14.604,14.702    c0,8.379-6.852,12.891-14.068,12.891h-23.174v-9.65h18.035c3.068,0,7.572,0,7.572-4.325c0-1.983-0.719-3.339-4.053-3.697    c-1.441-0.179-6.766-0.45-7.58-0.45c-12.262-0.363-15.059-6.494-15.059-13.888c0-8.386,5.865-12.989,13.082-12.989h23.174v9.65    h-16.957c-3.877,0-8.023-0.45-8.023,3.881c0,2.705,2.07,3.334,4.689,3.519C423.045,289.456,429.088,289.813,429.902,289.813    L429.902,289.813z" style="fill-rule:evenodd;clip-rule:evenodd;fill:#0A78A9;"/><path d="M388.33,289.813c13.523,0.628,14.695,7.487,14.695,14.702    c0,8.379-6.945,12.891-14.154,12.891h-23.174v-9.65h18.121c2.977,0,7.58,0,7.58-4.325c0-1.983-0.814-3.339-4.061-3.697    c-1.443-0.179-6.852-0.45-7.574-0.45c-12.268-0.363-15.15-6.494-15.15-13.888c0-8.386,5.951-12.989,13.166-12.989h23.176v9.65    h-16.957c-3.875,0-8.023-0.45-8.023,3.881c0,2.705,2.078,3.334,4.689,3.519C381.564,289.456,387.516,289.813,388.33,289.813    L388.33,289.813z" style="fill-rule:evenodd;clip-rule:evenodd;fill:#0A78A9;"/><path d="M257.574,272.406h-38.683l-12.623,13.889l-12.266-13.975    h-43.461v44.906h42.02l13.254-14.88l12.986,14.972h21.1v-15.243h14.881c5.681,0,16.14-0.179,16.14-15.959    C270.922,274.934,262.984,272.406,257.574,272.406L257.574,272.406z M186.879,307.756h-25.428v-8.836h24.254v-8.564h-24.254    v-8.387l26.782,0.088l10.73,12.174L186.879,307.756z M228.993,312.988L213.12,294.23l15.873-17.492V312.988z M253.879,292.789    h-13.797v-10.732h13.797c4.599,0,6.13,2.889,6.13,5.145C260.01,290.178,258.389,292.789,253.879,292.789L253.879,292.789z" style="fill-rule:evenodd;clip-rule:evenodd;fill:#0A78A9;"/><path d="M310.871,296.85c6.039-2.976,7.572-7.036,7.572-12.445    c0-9.65-7.752-11.998-13.16-11.998h-28.682v44.912h11.002v-15.871h14.432c3.783,0,5.318,3.789,5.41,7.664l0.271,8.207h10.727    l-0.357-9.199C318.086,300.813,316.102,297.479,310.871,296.85L310.871,296.85z M301.309,292.248h-13.705v-10.191H301.4    c4.604,0,6.045,2.889,6.045,5.145C307.445,290.178,305.818,292.248,301.309,292.248L301.309,292.248z" style="fill-rule:evenodd;clip-rule:evenodd;fill:#0A78A9;"/><rect height="44.906" style="fill-rule:evenodd;clip-rule:evenodd;fill:#0A78A9;" width="11" x="281.021" y="194.77"/><polygon points="190.667,194.77 226.737,194.77 226.737,204.512     201.758,204.512 201.758,212.896 226.016,212.896 226.016,221.369 201.758,221.369 201.758,230.298 226.737,230.298     226.737,239.676 190.667,239.676   " style="fill-rule:evenodd;clip-rule:evenodd;fill:#0A78A9;"/><path d="M267.584,219.299c6.043-3.068,7.576-7.036,7.576-12.446    c0-9.649-7.756-12.083-13.168-12.083h-28.671v44.906h10.998v-15.779h14.429c3.787,0,5.318,3.789,5.412,7.572l0.268,8.207h10.732    l-0.363-9.193C274.797,223.268,272.813,219.842,267.584,219.299L267.584,219.299z M258.025,214.61h-13.707v-10.191h13.798    c4.596,0,6.043,2.976,6.043,5.139C264.16,212.626,262.535,214.61,258.025,214.61L258.025,214.61z" style="fill-rule:evenodd;clip-rule:evenodd;fill:#0A78A9;"/><path d="M165.237,194.77l-13.524,30.118l-13.436-30.118h-17.314    v43.285l-19.295-43.285h-14.61l-19.659,44.906h11.723l4.24-10.006h22.003l4.418,10.006h22.183v-33.273l14.787,33.273h10.01    l15.059-32.73v32.73h11.002V194.77H165.237z M87.508,220.02l6.584-15.693l6.852,15.693H87.508z" style="fill-rule:evenodd;clip-rule:evenodd;fill:#0A78A9;"/><path d="M405.822,194.77v31.111l-18.578-31.111h-16.322v42.201    l-18.756-42.201h-14.604l-15.244,34.808c0,0-6.4,0-7.029-0.179c-2.705-0.543-6.852-2.434-6.852-10.277v-3.34    c0-10.457,5.682-11.27,12.982-11.27h6.852v-9.742h-14.424c-4.961,0-15.873,3.79-16.23,22.274    c-0.271,12.446,5.139,22.725,17.309,22.725h14.609l4.324-10.099h22.01l4.326,10.099h21.732v-32.916l19.84,32.916h15.059V194.77    H405.822L405.822,194.77z M338.1,220.02l6.586-15.693l6.852,15.693H338.1z" style="fill-rule:evenodd;clip-rule:evenodd;fill:#0A78A9;"/></g></g><g id="Layer_1"/></svg>