<?xml version="1.0" ?><!DOCTYPE svg  PUBLIC '-//W3C//DTD SVG 1.1//EN'  'http://www.w3.org/Graphics/SVG/1.1/DTD/svg11.dtd'><svg height="512px" style="enable-background:new 0 0 512 512;" version="1.1" viewBox="0 0 512 512" width="512px" xml:space="preserve" xmlns="http://www.w3.org/2000/svg" xmlns:xlink="http://www.w3.org/1999/xlink"><g id="card_x2C__credit_x2C__vector_x2C__jcb_x2C_"><g><path d="M495.998,389.952c0,8.842-7.215,16.051-16.051,16.051H32.059    c-8.842,0-16.057-7.209-16.057-16.051V122.049c0-8.836,7.215-16.052,16.057-16.052h447.889c8.836,0,16.051,7.216,16.051,16.052    V389.952z" style="fill-rule:evenodd;clip-rule:evenodd;fill:#114B9B;"/><path d="M212.313,261.007c0,26.15-40.311,22.004-57.168,17.493v53.113    h35.072c15.873,0,27.148-10.462,27.234-25.25v-125.97h-35.258c-12.803,0-23.18,6.673-26.242,19.027l-0.721,68.259    c9.379,4.597,30.568,11.634,34.715-2.705l0.543-33.187h21.824V261.007z" style="fill-rule:evenodd;clip-rule:evenodd;fill:#FFFFFF;"/><path d="M224.932,273.453v58.16h35.085    c15.772,0,27.052-10.549,27.052-25.25v-125.97h-34.631c-12.626,0-22.903,5.681-26.508,18.121l-0.998,40.125    c13.346-11.448,39.317-8.922,55.189-5.046v10.641c-14.252-7.394-38.954-10.641-40.846,9.557    c-2.168,22.725,23.082,23.359,40.938,14.067V278.5C264.07,282.468,238.549,284.81,224.932,273.453L224.932,273.453z" style="fill-rule:evenodd;clip-rule:evenodd;fill:#FFFFFF;"/><path d="M294.647,280.212v51.401h35.343    c15.688,0,26.871-10.733,26.871-25.25v-125.97h-34.622c-12.36,0-22.009,4.867-26.335,17.308    c-2.256,6.587-1.257,26.064-1.257,34.087l40.575,0.271c16.593,2.526,14.245,21.555,0.092,23.354    c17.758,1.447,19.021,19.12,5.139,23.809L294.647,280.212z" style="fill-rule:evenodd;clip-rule:evenodd;fill:#FFFFFF;"/><path d="M304.74,237.919h16.771c4.154,0,7.486,3.34,7.486,7.486v0.092    c0,4.147-3.332,7.487-7.486,7.487H304.74V237.919z" style="fill-rule:evenodd;clip-rule:evenodd;fill:#FFFFFF;"/><path d="M304.562,259.294h17.948c4.598,0,8.381,3.789,8.381,8.294    v0.092c0,4.597-3.783,8.3-8.381,8.3h-17.948V259.294z" style="fill-rule:evenodd;clip-rule:evenodd;fill:#FFFFFF;"/></g></g><g id="Layer_1"/></svg>