<svg xmlns="http://www.w3.org/2000/svg" viewBox="0 0 134.84 137.16"><defs><style>.cls-1{fill:#2d2e83;}.cls-2{fill:#1d71b8;}.cls-3{fill:#36a9e1;}</style></defs><g id="Layer_2" data-name="Layer 2"><g id="Layer_1-2" data-name="Layer 1"><polygon class="cls-1" points="66.19 76.92 32.41 96.32 32.31 96.38 0 77.75 34.26 58.41 66.19 76.92"/><polygon class="cls-2" points="36.63 136.03 0 114.91 0 77.74 36.63 98.87 36.63 136.03"/><polygon class="cls-3" points="66.19 76.92 34.26 58.42 34.26 21.14 66.19 39.78 66.19 76.92"/><polygon class="cls-1" points="102.45 18.64 102.45 57.92 70.47 76.3 70.47 37.29 102.45 18.64"/><polygon class="cls-2" points="34.26 21.14 70.47 0 102.44 18.64 66.2 39.77 34.26 21.14"/><polygon class="cls-3" points="70.47 76.3 102.44 57.92 134.84 76.37 102.63 94.89 70.47 76.3"/><polygon class="cls-1" points="102.62 100.04 102.62 137.16 68.44 117.21 68.44 80.33 102.62 100.04"/><polygon class="cls-2" points="134.84 76.4 134.84 118.65 102.63 137.16 102.63 94.91 134.84 76.4"/><polygon class="cls-3" points="68.44 80.33 68.44 117.22 36.63 136.03 36.63 98.88 68.44 80.33"/></g></g></svg>